<svg width="21" height="20" viewBox="0 0 21 20" fill="none" xmlns="http://www.w3.org/2000/svg">
<path id="Vector" d="M20.4189 15.8333V6.66667H0.418945V15.8333C0.418945 16.9384 0.857932 17.9982 1.63933 18.7796C2.42074 19.561 3.48054 20 4.58561 20H16.2523C17.3573 20 18.4172 19.561 19.1986 18.7796C19.98 17.9982 20.4189 16.9384 20.4189 15.8333ZM7.08061 10.4133C7.08061 10.7442 6.94918 11.0615 6.71523 11.2954C6.48128 11.5294 6.16397 11.6608 5.83311 11.6608C5.50225 11.6608 5.18495 11.5294 4.951 11.2954C4.71704 11.0615 4.58561 10.7442 4.58561 10.4133C4.58561 10.0825 4.71704 9.76517 4.951 9.53122C5.18495 9.29727 5.50225 9.16583 5.83311 9.16583C6.16397 9.16583 6.48128 9.29727 6.71523 9.53122C6.94918 9.76517 7.08061 10.0825 7.08061 10.4133ZM7.08061 14.58C7.08061 14.9109 6.94918 15.2282 6.71523 15.4621C6.48128 15.6961 6.16397 15.8275 5.83311 15.8275C5.50225 15.8275 5.18495 15.6961 4.951 15.4621C4.71704 15.2282 4.58561 14.9109 4.58561 14.58C4.58561 14.2491 4.71704 13.9318 4.951 13.6979C5.18495 13.4639 5.50225 13.3325 5.83311 13.3325C6.16397 13.3325 6.48128 13.4639 6.71523 13.6979C6.94918 13.9318 7.08061 14.2491 7.08061 14.58ZM11.6673 10.4133C11.6673 10.7442 11.5358 11.0615 11.3019 11.2954C11.0679 11.5294 10.7506 11.6608 10.4198 11.6608C10.0889 11.6608 9.77161 11.5294 9.53766 11.2954C9.30371 11.0615 9.17228 10.7442 9.17228 10.4133C9.17228 10.0825 9.30371 9.76517 9.53766 9.53122C9.77161 9.29727 10.0889 9.16583 10.4198 9.16583C10.7506 9.16583 11.0679 9.29727 11.3019 9.53122C11.5358 9.76517 11.6673 10.0825 11.6673 10.4133ZM11.6673 14.58C11.6673 14.9109 11.5358 15.2282 11.3019 15.4621C11.0679 15.6961 10.7506 15.8275 10.4198 15.8275C10.0889 15.8275 9.77161 15.6961 9.53766 15.4621C9.30371 15.2282 9.17228 14.9109 9.17228 14.58C9.17228 14.2491 9.30371 13.9318 9.53766 13.6979C9.77161 13.4639 10.0889 13.3325 10.4198 13.3325C10.7506 13.3325 11.0679 13.4639 11.3019 13.6979C11.5358 13.9318 11.6673 14.2491 11.6673 14.58ZM16.2473 10.4133C16.2473 10.7442 16.1158 11.0615 15.8819 11.2954C15.6479 11.5294 15.3306 11.6608 14.9998 11.6608C14.6689 11.6608 14.3516 11.5294 14.1177 11.2954C13.8837 11.0615 13.7523 10.7442 13.7523 10.4133C13.7523 10.0825 13.8837 9.76517 14.1177 9.53122C14.3516 9.29727 14.6689 9.16583 14.9998 9.16583C15.3306 9.16583 15.6479 9.29727 15.8819 9.53122C16.1158 9.76517 16.2473 10.0825 16.2473 10.4133ZM20.4189 4.16667C20.4189 3.0616 19.98 2.00179 19.1986 1.22039C18.4172 0.438987 17.3573 0 16.2523 0H4.58561C3.48054 0 2.42074 0.438987 1.63933 1.22039C0.857932 2.00179 0.418945 3.0616 0.418945 4.16667V5H20.4189V4.16667Z" fill="black"/>
</svg>
