<svg width="21" height="20" viewBox="0 0 21 20" fill="none" xmlns="http://www.w3.org/2000/svg">
<path id="Vector" d="M13.6689 11.5H9.66895C9.47003 11.5 9.27927 11.421 9.13862 11.2803C8.99796 11.1397 8.91895 10.9489 8.91895 10.75V4.75C8.91895 4.55109 8.99796 4.36032 9.13862 4.21967C9.27927 4.07902 9.47003 4 9.66895 4C9.86786 4 10.0586 4.07902 10.1993 4.21967C10.3399 4.36032 10.4189 4.55109 10.4189 4.75V10H13.6689C13.8679 10 14.0586 10.079 14.1993 10.2197C14.3399 10.3603 14.4189 10.5511 14.4189 10.75C14.4189 10.9489 14.3399 11.1397 14.1993 11.2803C14.0586 11.421 13.8679 11.5 13.6689 11.5ZM10.4189 0C4.89695 0 0.418945 4.478 0.418945 10C0.418945 15.522 4.89695 20 10.4189 20C15.9409 20 20.4189 15.522 20.4189 10C20.4189 4.478 15.9409 0 10.4189 0Z" fill="black"/>
</svg>
