<svg width="18" height="20" viewBox="0 0 18 20" fill="none" xmlns="http://www.w3.org/2000/svg">
<path id="Vector" d="M10.6529 19.3695C13.1456 17.1757 17.5803 12.6937 17.5803 8.5807C17.5803 6.30496 16.6763 4.12242 15.0671 2.51323C13.4579 0.904035 11.2754 0 8.99965 0C6.7239 0 4.54137 0.904035 2.93217 2.51323C1.32298 4.12242 0.418945 6.30496 0.418945 8.5807C0.418945 12.6937 4.85231 17.1757 7.34643 19.3695C7.80137 19.7756 8.38984 20 8.99965 20C9.60945 20 10.1979 19.7756 10.6529 19.3695ZM6.13941 8.5807C6.13941 7.82212 6.44076 7.09461 6.97716 6.55821C7.51355 6.02181 8.24107 5.72047 8.99965 5.72047C9.75823 5.72047 10.4857 6.02181 11.0221 6.55821C11.5585 7.09461 11.8599 7.82212 11.8599 8.5807C11.8599 9.33928 11.5585 10.0668 11.0221 10.6032C10.4857 11.1396 9.75823 11.4409 8.99965 11.4409C8.24107 11.4409 7.51355 11.1396 6.97716 10.6032C6.44076 10.0668 6.13941 9.33928 6.13941 8.5807Z" fill="black"/>
</svg>
